# xmcd
#
# Track frame offsets:
#	150
#	19012
#	34025
#	54785
#	67570
#	85440
#	104225
#	114485
#	132857
#	146810
#	163470
#	178245
#	191532
#	216310
#	231162
#	244310
#	265605
#	280412
#	297085
#	312840
#	332467
#	345177
#
# Disc length: 4784 seconds
#
# Revision: 0
# Processed by: cddbd v1.5.1PL0 Copyright (c) Steve Scherf et al.
# Submitted via: audiograbber 1.83.01
#
DISCID=4612ae16
DTITLE=Nükhet Duru - Nükhet Duru Klasikleri
DYEAR=1900
DGENRE=
TTITLE0=Melankoli
TTITLE1=Beni Benimle Birak
TTITLE2=Ben Sana Vurgunum
TTITLE3=Anilar
TTITLE4=Bir Nefes Gibi
TTITLE5=Al Beni De Yanina
TTITLE6=Canim Yandi
TTITLE7=Kulis
TTITLE8=Günes
TTITLE9=Gerisi Viz Gelir
TTITLE10=Hayat Umutla Baslar
TTITLE11=Haykiriyorum
TTITLE12=Yildizlar
TTITLE13=Cambaz
TTITLE14=Benimsin Diyemedigim
TTITLE15=Iyi Oldu Gelmedigin
TTITLE16=Nerede O Eski Sarkiler
TTITLE17=Büyüme Cocuk
TTITLE18=Ben Bir Kadinim
TTITLE19=Al Gönlümü Diyar Diyar Sürükle
TTITLE20=Takalar
TTITLE21=Dostluga Davet
EXTD=
EXTT0=
EXTT1=
EXTT2=
EXTT3=
EXTT4=
EXTT5=
EXTT6=
EXTT7=
EXTT8=
EXTT9=
EXTT10=
EXTT11=
EXTT12=
EXTT13=
EXTT14=
EXTT15=
EXTT16=
EXTT17=
EXTT18=
EXTT19=
EXTT20=
EXTT21=
PLAYORDER=
